<?xml version="1.0" encoding="UTF-8"?>
<svg id="Layer_1" data-name="Layer 1" xmlns="http://www.w3.org/2000/svg" viewBox="0 0 675.01 686.33">
  <defs>
    <style>
      .cls-1 {
        fill: #fff;
      }

      .cls-1, .cls-2 {
        stroke-width: 0px;
      }

      .cls-2 {
        fill: #212121;
      }
    </style>
  </defs>
  <g>
    <path class="cls-1" d="M414.18,431.68c3.04,1.84,5.6,2.92,7.54,4.65,7.55,6.74,5.46,18.13-4.18,22.13-3.1,1.28-6.72,1.91-10.11,1.92-46.86.14-93.72.15-140.58.13-12.6,0-19.68-6.9-17.97-17.29.88-5.34,3.33-7.8,11.42-11.23-14.34-19.46-32.26-34.58-54.81-44.38-16.52-7.18-33.62-9.69-51.49-5.48-26.65,6.27-45.11,32.1-39.57,56.84,1.43,6.41,6.17,12.16,9.63,18.08,1.09,1.86,2.96,3.29,5.84,6.38-4.93,1.1-8.46,2.66-11.94,2.55-34.39-1.05-62.41-14.52-85.04-39.67-41.89-46.56-35.82-125.82,24.86-165.08,21.11-13.66,44.96-18.55,70.27-16.5,39.5,3.2,70.39,22.2,96.38,49.67,35.04,37.04,56.69,80.65,67.02,129.65.35,1.64.37,3.34.68,4.99.27,1.44.74,2.85,1.15,4.38h29.93c-2.46-20.59-7.01-40.32-13.74-59.67-10.77-30.95-28.37-58.4-45.94-85.93-16.73-26.2-27.9-54.21-27.06-85.56.85-31.31,9.57-60.76,23.96-88.7,18.85-36.61,41.27-70.96,69.36-101.71,6.92-7.58,8.67-7.86,15.28-.42,36.33,40.88,65.76,85.72,84.13,136.93,18.49,51.52,9.17,99.15-20.6,144.2-15.81,23.93-30.62,48.39-40.87,75.14-8.07,21.06-13.16,42.79-15.67,65.61h30.14c1.47-7.01,2.94-14.27,4.51-21.51,7.33-33.8,23.03-64.06,42.78-92.47,13.46-19.37,29.68-36.53,49.37-50.13,31.99-22.09,67.42-30.71,106.05-21.05,45.62,11.4,79.24,50.85,83.6,96.49,5.45,56.9-36.21,109.82-94.49,119.84-6.06,1.04-12.32,1.48-18.47,1.42-2.51-.03-4.99-2.14-7.48-3.3,1.01-1.88,1.68-4.03,3.07-5.59,15.9-17.85,14.38-43.66-4.36-60.44-20.04-17.94-43.63-20.26-68.78-12.45-22.42,6.96-40.04,20.74-55.29,37.63-2.91,3.22-5.67,6.58-8.54,9.94Z"/>
    <path class="cls-2" d="M118.3,471.98c-.18,0-.35,0-.53,0-35.37-1.07-65.42-15.09-89.32-41.66-21.86-24.3-31.86-57.37-27.44-90.74,4.57-34.41,23.56-64.03,53.5-83.39,21.36-13.82,46.26-19.69,74.01-17.44,37.54,3.04,70.33,19.9,100.25,51.53,34.66,36.64,57.71,81.23,68.53,132.53.25,1.17.36,2.28.46,3.25.05.48.1.94.16,1.36h18.43c-2.54-17.77-6.67-34.75-12.57-51.7-10.44-30.02-27.95-57.45-44.89-83.97l-.45-.7c-19.63-30.74-28.78-59.84-28-88.95.82-30.44,9.11-61.15,24.62-91.28,20.73-40.25,43.71-73.94,70.26-103.01C329.39,3.38,332.86,0,337.68,0h.07c4.82.03,8.33,3.54,11.79,7.44,40.02,45.03,67.92,90.47,85.3,138.89,9.32,25.98,12.04,52.05,8.08,77.48-3.75,24.05-13.61,48.29-29.32,72.06-14.75,22.33-29.84,46.75-40.27,73.98-7.03,18.36-11.79,37.22-14.5,57.47h18.49c.13-.64.27-1.28.4-1.93,1.01-4.85,2.05-9.87,3.13-14.85,6.73-31.03,21.03-61.98,43.71-94.62,14.63-21.06,31.75-38.43,50.89-51.64,35.04-24.2,72.36-31.58,110.92-21.94,23.51,5.88,44.38,18.78,60.36,37.31,15.89,18.43,25.49,40.71,27.76,64.43,2.78,29.07-5.96,58.12-24.61,81.78-18.62,23.63-45.2,39.44-74.84,44.54-6.21,1.07-12.77,1.58-19.55,1.51-3.32-.03-5.98-1.59-8.12-2.85-.68-.4-1.32-.77-1.84-1.02l-5.76-2.68,3.01-5.59c.26-.49.49-1,.73-1.51.71-1.56,1.61-3.5,3.15-5.23,13.93-15.63,12.3-37.49-3.89-51.98-17.17-15.36-37.78-19.02-63-11.19-19.13,5.94-35.84,17.35-52.61,35.92-1.28,1.41-2.51,2.84-3.77,4.32.79.52,1.56,1.1,2.31,1.76,5.04,4.49,7.4,10.98,6.32,17.36-1.11,6.56-5.67,12.08-12.2,14.79-3.66,1.52-8.06,2.36-12.39,2.37-47.35.14-95.42.15-140.6.13-8.5,0-15.53-2.77-19.79-7.79-3.73-4.4-5.15-10.09-4.1-16.48.98-5.93,3.68-9.48,8.15-12.33-13.43-16.55-29.2-28.63-48.01-36.81-16.45-7.15-32.06-8.83-47.73-5.15-23.8,5.6-39.87,28.35-35.09,49.68.81,3.62,3.24,7.37,5.81,11.34,1.05,1.62,2.14,3.3,3.14,5.03.3.52,1.14,1.35,2.19,2.39.78.78,1.76,1.74,2.86,2.92l7.14,7.66-10.22,2.29c-1.51.34-2.91.73-4.27,1.12-2.89.81-5.62,1.58-8.63,1.58ZM117.19,250.28c-20.89,0-39.74,5.36-56.16,15.98-26.93,17.43-44.02,44.03-48.12,74.9-3.96,29.88,4.95,59.45,24.46,81.14,21.93,24.38,48.35,36.7,80.77,37.69.21,0,.43,0,.67-.02-.85-1.45-1.79-2.91-2.79-4.45-3.03-4.68-6.16-9.52-7.44-15.24-6.18-27.61,13.99-56.91,44.05-63.99,18.02-4.24,36.62-2.28,55.26,5.82,22.56,9.81,41.82,25.39,57.24,46.33l4.51,6.12-7,2.96c-7.25,3.07-7.44,4.28-7.84,6.68-.47,2.84,0,5.11,1.41,6.76,1.94,2.29,5.73,3.55,10.65,3.55,45.17.01,93.22.01,140.56-.13,2.76,0,5.62-.54,7.83-1.46,2.73-1.13,4.54-3.21,4.96-5.71.4-2.35-.48-4.62-2.47-6.4-.78-.7-2.01-1.37-3.56-2.23-.92-.51-1.97-1.09-3.09-1.76l-6.05-3.67,4.61-5.37c.9-1.05,1.79-2.1,2.67-3.15,1.92-2.27,3.91-4.63,5.97-6.9,18.02-19.96,36.98-32.82,57.96-39.34,29.19-9.06,54.27-4.45,74.56,13.71,20.64,18.47,23.01,47.37,5.79,67.8,5.65,0,11.22-.44,16.44-1.34,55.38-9.52,94.71-59.31,89.54-113.35-4.19-43.8-35.97-80.46-79.09-91.24-35.07-8.77-69.11-1.98-101.19,20.17-17.94,12.39-34.04,28.75-47.85,48.62-21.77,31.32-35.45,60.86-41.84,90.32-1.07,4.93-2.1,9.92-3.1,14.75-.47,2.26-.93,4.5-1.4,6.72l-1,4.77h-41.71l.73-6.66c2.62-23.83,7.86-45.78,16.03-67.1,10.87-28.39,27.06-54.51,41.47-76.31,30.43-46.06,36.96-91.48,19.96-138.87-16.85-46.96-43.99-91.11-82.97-134.97-1.44-1.63-2.35-2.51-2.91-3-.66.55-1.72,1.59-3.46,3.49-25.83,28.27-48.22,61.12-68.46,100.41-14.89,28.92-22.51,57.08-23.3,86.11-.73,27.01,7.57,53.12,26.12,82.17l.45.7c17.31,27.11,35.2,55.14,46.11,86.49,6.92,19.89,11.51,39.82,14.03,60.93l.8,6.71h-41.3l-1.19-4.45c-.12-.45-.24-.88-.37-1.31-.32-1.11-.64-2.25-.88-3.51-.19-1.02-.29-1.99-.38-2.84-.08-.75-.15-1.46-.27-2.02-10.35-49.11-32.39-91.76-65.51-126.76-27.79-29.38-58.05-45.02-92.51-47.81-3.51-.28-6.96-.43-10.36-.43Z"/>
  </g>
  <g>
    <path class="cls-1" d="M322.56,680.33v-170.25c-4.66,0-9.2,0-13.74,0s-9.26,0-13.26,0c-3.55,8.93-6.23,17.74-10.41,25.81-15.74,30.34-40.25,48.92-76.21,52.13-35.01,3.12-70.09-19.25-77.91-50.23-6.5-25.75,5.48-51.43,28.58-61.03,2.82-1.17,5.86-2.38,8.83-2.47,2.09-.06,4.51,1.44,6.21,2.88.51.43-.61,3.18-1.5,4.55-21.62,33.38-1.65,62.66,22.78,70.39,21.33,6.75,44.27-.89,57.87-19.39,4.85-6.59,8.21-14.2,12.75-22.22-12.68-1.23-17.16-4.69-17.92-12.62-.95-10.05,6.21-16.83,18.27-16.92,17.43-.12,34.86-.01,52.28-.01,29.05,0,58.09-.01,87.14-.03,6.62,0,12.78,1.19,17.05,6.64,7.3,9.33,2.12,20.85-10,22.43-.92.12-1.84.32-2.74.48,2.69,21.92,27.2,42.25,51.6,43.46,19.19.95,33.65-6.67,42.94-22.42,8.76-14.85,7.1-30.15-1.01-44.98-.63-1.15-1.69-2.15-2.07-3.36-.79-2.49-1.26-5.08-1.87-7.63,3.07-.45,6.4-1.88,9.18-1.2,17.65,4.3,33.35,23.56,35.95,40.95,5.43,36.25-25.02,67.17-61.17,72.18-33.66,4.66-76.88-13.35-95.97-54.92-3.27-7.13-5.68-14.64-8.61-22.31h-26.98v170.07h-30.07Z"/>
    <path class="cls-2" d="M358.63,686.33h-42.07v-170.25h-16.88c-.58,1.53-1.14,3.05-1.69,4.54-2.21,5.99-4.49,12.19-7.52,18.03-17.36,33.48-44.62,52.1-81,55.35-2.35.21-4.71.31-7.05.31-35.51,0-69.26-23.56-77.21-55.05-7.24-28.69,6.26-57.3,32.1-68.04,3.55-1.47,7.05-2.81,10.95-2.93,4.14-.12,7.88,2.27,10.27,4.3,4.6,3.9.9,10.47-.34,12.39-8.22,12.7-10.37,25.55-6.19,37.17,4.02,11.19,13.89,20.48,25.75,24.23,19.01,6.01,39.12-.74,51.23-17.22,3.03-4.12,5.53-8.86,8.18-13.89.05-.09.1-.18.14-.27-7.46-2.01-13.66-6.36-14.63-16.56-.59-6.2,1.12-11.71,4.95-15.94,4.34-4.81,11.18-7.48,19.25-7.54,11.79-.08,23.77-.06,35.35-.04,5.66.01,11.33.03,16.98.02,29.04,0,58.09-.01,87.14-.03h.05c6.34,0,15.47.94,21.73,8.95,4.66,5.96,5.88,13.34,3.26,19.73-2.31,5.64-7.25,9.8-13.57,11.6,5.35,16.82,25.11,31.77,44.74,32.74,17,.84,29.25-5.53,37.48-19.47,7.07-11.99,6.71-24.76-1.1-39.05-.06-.12-.29-.42-.46-.65-.65-.89-1.54-2.1-2.07-3.77-.64-2.02-1.08-4-1.5-5.91-.16-.72-.32-1.44-.49-2.15l-1.51-6.37,6.47-.95c.7-.1,1.55-.31,2.44-.52,2.55-.62,5.72-1.38,9.04-.57,19.22,4.68,37.38,25.27,40.47,45.89,2.51,16.73-1.94,33.73-12.52,47.88-12.56,16.79-32.15,28.14-53.76,31.13-3.66.51-7.45.76-11.31.76-33.32,0-72.52-19-90.94-59.12-2.33-5.08-4.25-10.37-6.11-15.49-.4-1.09-.8-2.2-1.21-3.32h-16.82v170.07ZM328.56,674.33h18.07v-170.07h37.11l1.47,3.86c.95,2.49,1.85,4.97,2.72,7.37,1.85,5.11,3.61,9.94,5.73,14.58,18.11,39.45,58.83,55.77,89.69,51.48,18.18-2.52,35.3-12.4,45.8-26.43,8.77-11.73,12.32-25.19,10.26-38.92-2.35-15.68-17.04-32.51-31.44-36.01-.12-.02-.3-.02-.52,0,.09.32.18.64.28.96.09.14.26.36.38.54.39.53.87,1.18,1.3,1.98,9.88,18.06,10.18,35.19.91,50.91-10.41,17.64-27.14,26.42-48.41,25.36-27.49-1.36-54.25-24.12-57.26-48.72l-.69-5.64,6.37-1.14c.74-.14,1.49-.28,2.24-.38,3.77-.49,6.57-2.31,7.67-4.99.99-2.43.42-5.19-1.61-7.79-2.41-3.08-5.97-4.34-12.28-4.34h-.03c-29.05.02-58.1.03-87.14.03-5.67-.02-11.33-.01-17-.02-11.55-.02-23.5-.05-35.24.04-4.67.03-8.37,1.31-10.43,3.58-1.53,1.69-2.17,3.97-1.9,6.77.32,3.38.57,6.05,12.52,7.21l9.18.89-4.54,8.03c-1.41,2.5-2.73,5-4.01,7.43-2.86,5.43-5.57,10.56-9.12,15.4-15.21,20.68-40.53,29.14-64.52,21.55-15.36-4.86-28.16-16.98-33.42-31.62-3.69-10.28-5.51-26.41,6.1-45.65-1.65.4-3.46,1.15-4.89,1.74-20.3,8.43-30.84,31.15-25.07,54.02,7.1,28.1,39.2,48.62,71.56,45.72,32.49-2.9,55.85-18.9,71.41-48.92,2.68-5.17,4.73-10.75,6.91-16.65,1.03-2.8,2.1-5.7,3.26-8.62l1.5-3.78h37.07v170.25Z"/>
  </g>
  <g>
    <path class="cls-1" d="M238.78,594.86c32.58-.52,55.93,14.08,71.74,40.94.94,1.6,1.72,3.36,2.21,5.14.7,2.52.23,4.49-3.22,4.36-21.03-.8-41.82-2.61-59.8-14.73-10.99-7.4-19.06-17.41-25.68-28.51-2.73-4.57-1.16-6.95,4.31-7.17,3.48-.15,6.96-.03,10.45-.03Z"/>
    <path class="cls-2" d="M309.82,651.3c-.18,0-.35,0-.54,0-21.21-.81-43.55-2.69-62.93-15.75-10.51-7.08-19.5-17.03-27.48-30.41-3.06-5.14-2.3-8.83-1.11-11.02,1.76-3.25,5.23-5.01,10.32-5.22,2.56-.11,5.08-.08,7.53-.05,1.04.01,2.08.02,3.12.02,33.58-.53,59.5,14.25,76.96,43.89,1.25,2.12,2.2,4.34,2.82,6.58,1.21,4.34-.03,7.14-1.29,8.73-1.18,1.5-3.42,3.24-7.41,3.24ZM230.3,600.83c6.83,11.03,14.1,18.93,22.76,24.76,15.61,10.52,33.67,12.66,52.46,13.53-.05-.09-.11-.19-.16-.28-15.32-26.03-37.06-38.44-66.47-37.98h-.1c-1.1,0-2.2-.01-3.3-.02-1.79-.02-3.5-.04-5.18,0Z"/>
  </g>
  <g>
    <path class="cls-1" d="M435.15,614.2c3.1,0,6.2-.1,9.29.02,6.7.25,8.38,2.89,5.27,8.5-12.42,22.39-31.34,36.1-57.66,39.58-8.23,1.09-16.52,1.88-24.81,2.37-5.7.34-6.79-1.41-4.12-6.33,15.24-27.99,38-44.69,72.02-44.14Z"/>
    <path class="cls-2" d="M365.88,670.72c-2.64,0-6.67-.52-8.9-4.04-2.81-4.42-.12-9.35.89-11.21,17.36-31.9,43.38-47.84,77.34-47.27.93,0,1.86,0,2.8-.02,2.16-.02,4.4-.04,6.67.04,2.11.08,8.52.32,11.38,5.4,1.86,3.3,1.5,7.34-1.09,12-13.67,24.64-34.57,38.98-62.12,42.62-8.39,1.11-16.88,1.92-25.24,2.41-.44.03-1.03.06-1.72.06ZM433.53,620.18c-27.84,0-48.68,12.55-63.6,38.3,7.09-.48,14.25-1.2,21.34-2.14,23.76-3.14,41.09-14.96,52.97-36.13,0,0-.02,0-.02,0-1.98-.07-3.99-.05-6.11-.03-.99,0-1.97.02-2.96.02h-.1c-.51,0-1.02-.01-1.52-.01Z"/>
  </g>
</svg>